<svg width="17" height="16" viewBox="0 0 17 16" fill="none" xmlns="http://www.w3.org/2000/svg">
<path d="M8.5 0.75C8.5 0.948912 8.42098 1.13968 8.28033 1.28033C8.13968 1.42098 7.94891 1.5 7.75 1.5L1.75 1.5C1.68369 1.5 1.62011 1.52634 1.57322 1.57322C1.52634 1.62011 1.5 1.6837 1.5 1.75L1.5 13.75C1.5 13.8163 1.52634 13.8799 1.57322 13.9268C1.62011 13.9737 1.6837 14 1.75 14L7.75 14C7.94891 14 8.13968 14.079 8.28033 14.2197C8.42098 14.3603 8.5 14.5511 8.5 14.75C8.5 14.9489 8.42098 15.1397 8.28033 15.2803C8.13968 15.421 7.94891 15.5 7.75 15.5L1.75 15.5C0.784 15.5 -6.85395e-08 14.716 -1.5299e-07 13.75L-1.20206e-06 1.75C-1.24264e-06 1.28587 0.184374 0.840753 0.512562 0.512564C0.840751 0.184376 1.28587 6.30679e-07 1.75 5.90104e-07L7.75 6.55671e-08C7.94891 4.81776e-08 8.13968 0.0790171 8.28033 0.219669C8.42098 0.360322 8.5 0.551088 8.5 0.75Z" fill="#515152"/>
<path d="M4.13803 6.63502C4.13803 6.3698 4.24339 6.11545 4.43093 5.92791C4.61846 5.74037 4.87282 5.63502 5.13803 5.63502L9.99403 5.63502C10.017 5.27902 10.046 4.92502 10.08 4.56902L10.11 4.26402C10.1212 4.14907 10.1599 4.03851 10.223 3.94172C10.286 3.84494 10.3714 3.76478 10.472 3.70805C10.5726 3.65133 10.6854 3.6197 10.8008 3.61587C10.9162 3.61203 11.0309 3.63609 11.135 3.68602C12.9631 4.56213 14.6179 5.76101 16.02 7.22502L16.05 7.25601C16.1787 7.39025 16.2506 7.56904 16.2506 7.75502C16.2506 7.94099 16.1787 8.11978 16.05 8.25401L16.02 8.28502C14.6179 9.74904 12.9631 10.9479 11.135 11.824C11.0309 11.8739 10.9162 11.898 10.8008 11.8942C10.6854 11.8903 10.5726 11.8587 10.472 11.802C10.3714 11.7453 10.286 11.6651 10.223 11.5683C10.1599 11.4715 10.1212 11.361 10.11 11.246L10.08 10.941C10.046 10.586 10.017 10.231 9.99403 9.87502L5.13803 9.87502C4.87282 9.87502 4.61846 9.76966 4.43093 9.58212C4.24339 9.39459 4.13803 9.14023 4.13803 8.87502L4.13803 6.63502Z" fill="#515152"/>
</svg>
