<svg width="16" height="16" viewBox="0 0 16 16" fill="none" xmlns="http://www.w3.org/2000/svg">
<g clip-path="url(#clip0_401_919)">
<path d="M6.00025 0.277334C6.09787 0.395951 6.15767 0.541116 6.17193 0.694073C6.18619 0.84703 6.15426 1.00075 6.08025 1.13537C5.50209 2.19689 5.20015 3.38676 5.20222 4.59551C5.20222 8.61668 8.48035 11.8728 12.5205 11.8728C13.0475 11.8728 13.5606 11.8178 14.0536 11.7128C14.2047 11.6801 14.3621 11.6926 14.5062 11.7488C14.6503 11.805 14.7746 11.9024 14.8636 12.0288C14.9576 12.1603 15.0055 12.3191 14.9999 12.4806C14.9943 12.6421 14.9355 12.7972 14.8326 12.9219C14.0483 13.8853 13.0588 14.6616 11.9363 15.1941C10.8139 15.7267 9.58672 16.002 8.34435 16C3.73416 16 0 12.2858 0 7.70964C0 4.2655 2.11409 1.31138 5.12421 0.0593244C5.27416 -0.0040464 5.44062 -0.0170529 5.59858 0.0222585C5.75655 0.06157 5.8975 0.151077 6.00025 0.277334Z" fill="#515152"/>
<path d="M10.7939 3.14749C10.8083 3.10418 10.8359 3.06649 10.8729 3.03978C10.9099 3.01307 10.9543 2.99869 10.9999 2.99869C11.0456 2.99869 11.09 3.01307 11.127 3.03978C11.164 3.06649 11.1916 3.10418 11.2059 3.14749L11.593 4.30954C11.766 4.82756 12.172 5.23358 12.69 5.40658L13.8521 5.7936C13.8954 5.80794 13.933 5.83556 13.9598 5.87255C13.9865 5.90953 14.0008 5.95399 14.0008 5.99961C14.0008 6.04523 13.9865 6.08969 13.9598 6.12667C13.933 6.16365 13.8954 6.19128 13.8521 6.20562L12.69 6.59263C12.4345 6.67775 12.2024 6.82121 12.012 7.01162C11.8215 7.20204 11.6781 7.43419 11.593 7.68968L11.2059 8.85173C11.1916 8.89503 11.164 8.93272 11.127 8.95943C11.09 8.98614 11.0456 9.00052 10.9999 9.00052C10.9543 9.00052 10.9099 8.98614 10.8729 8.95943C10.8359 8.93272 10.8083 8.89503 10.7939 8.85173L10.4069 7.68968C10.3218 7.43419 10.1783 7.20204 9.98792 7.01162C9.7975 6.82121 9.56535 6.67775 9.30987 6.59263L8.14782 6.20562C8.10451 6.19128 8.06682 6.16365 8.04011 6.12667C8.0134 6.08969 7.99902 6.04523 7.99902 5.99961C7.99902 5.95399 8.0134 5.90953 8.04011 5.87255C8.06682 5.83556 8.10451 5.80794 8.14782 5.7936L9.30987 5.40658C9.56535 5.32146 9.7975 5.17801 9.98792 4.98759C10.1783 4.79717 10.3218 4.56502 10.4069 4.30954L10.7939 3.14749ZM13.8631 0.0983612C13.8729 0.0698863 13.8914 0.0451949 13.916 0.0277198C13.9405 0.0102448 13.9699 0.000854492 14.0001 0.000854492C14.0302 0.000854492 14.0596 0.0102448 14.0841 0.0277198C14.1087 0.0451949 14.1272 0.0698863 14.1371 0.0983612L14.3951 0.872393C14.5101 1.21841 14.7811 1.48942 15.1271 1.60442L15.9011 1.86243C15.9296 1.87231 15.9543 1.89081 15.9718 1.91536C15.9893 1.93991 15.9986 1.9693 15.9986 1.99944C15.9986 2.02958 15.9893 2.05897 15.9718 2.08352C15.9543 2.10807 15.9296 2.12657 15.9011 2.13645L15.1271 2.39446C14.9566 2.45118 14.8016 2.54688 14.6746 2.67395C14.5475 2.80102 14.4518 2.95597 14.3951 3.12649L14.1371 3.90052C14.1272 3.92899 14.1087 3.95369 14.0841 3.97116C14.0596 3.98864 14.0302 3.99803 14.0001 3.99803C13.9699 3.99803 13.9405 3.98864 13.916 3.97116C13.8914 3.95369 13.8729 3.92899 13.8631 3.90052L13.605 3.12649C13.5483 2.95597 13.4526 2.80102 13.3256 2.67395C13.1985 2.54688 13.0435 2.45118 12.873 2.39446L12.099 2.13645C12.0705 2.12657 12.0458 2.10807 12.0283 2.08352C12.0109 2.05897 12.0015 2.02958 12.0015 1.99944C12.0015 1.9693 12.0109 1.93991 12.0283 1.91536C12.0458 1.89081 12.0705 1.87231 12.099 1.86243L12.873 1.60442C13.219 1.48942 13.49 1.21841 13.605 0.872393L13.8631 0.0993612V0.0983612Z" fill="#515152"/>
</g>
<defs>
<clipPath id="clip0_401_919">
<rect width="16" height="16" fill="white"/>
</clipPath>
</defs>
</svg>
