<svg width="44" height="35" viewBox="0 0 44 35" fill="none" xmlns="http://www.w3.org/2000/svg">
<path d="M38.9218 4.71245H21.6345L18.5876 1.70068C17.7665 0.888992 16.6644 0.44043 15.5191 0.44043H4.3472C1.9702 0.44043 0.0469845 2.36284 0.0469845 4.71245L0.0253754 30.3446C0.0253754 32.6942 1.9702 34.6166 4.3472 34.6166H38.9218C41.2988 34.6166 43.2437 32.6942 43.2437 30.3446V8.98447C43.2437 6.63486 41.2988 4.71245 38.9218 4.71245ZM36.7609 30.3446H6.50812C5.31961 30.3446 4.3472 29.3834 4.3472 28.2086V11.1205C4.3472 9.94568 5.31961 8.98447 6.50812 8.98447H36.7609C37.9494 8.98447 38.9218 9.94568 38.9218 11.1205V28.2086C38.9218 29.3834 37.9494 30.3446 36.7609 30.3446Z" fill="black"/>
</svg>
