<svg width="26" height="26" viewBox="0 0 26 26" fill="none" xmlns="http://www.w3.org/2000/svg">
<path d="M13 2L16.6678 8.95173L24.4127 10.2918L18.9346 15.9283L20.0534 23.7082L13 20.24L5.94658 23.7082L7.06541 15.9283L1.58732 10.2918L9.33222 8.95173L13 2Z" fill="#FFC52F"/>
<path d="M24.6179 8.70198L17.2661 8.03474L14.3952 0.965122C13.8788 -0.321707 12.1168 -0.321707 11.6003 0.965122L8.72947 8.05062L1.39283 8.70198C0.0561374 8.81319 -0.490693 10.5607 0.527018 11.4822L6.10164 16.5342L4.43078 24.0327C4.12698 25.399 5.53963 26.4793 6.69404 25.7485L12.9978 21.7768L19.3015 25.7644C20.4559 26.4952 21.8686 25.4149 21.5648 24.0486L19.8939 16.5342L25.4685 11.4822C26.4862 10.5607 25.9546 8.81319 24.6179 8.70198ZM12.9978 18.806L7.28644 22.4123L8.80541 15.6127L3.76243 11.0373L10.4155 10.4336L12.9978 4.03127L15.5952 10.4495L22.2483 11.0532L17.2053 15.6286L18.7243 22.4282L12.9978 18.806Z" fill="black"/>
</svg>
