<svg width="24" height="24" viewBox="0 0 24 24" fill="none" xmlns="http://www.w3.org/2000/svg">
<path d="M0.75 18.5625V23.25H5.4375L19.2625 9.425L14.575 4.7375L0.75 18.5625ZM4.4 20.75H3.25V19.6L14.575 8.275L15.725 9.425L4.4 20.75ZM22.8875 4.0375L19.9625 1.1125C19.8469 0.996624 19.7095 0.904689 19.5583 0.841963C19.4071 0.779236 19.245 0.746948 19.0813 0.746948C18.9175 0.746948 18.7554 0.779236 18.6042 0.841963C18.453 0.904689 18.3156 0.996624 18.2 1.1125L15.9125 3.4L20.6 8.0875L22.8875 5.8C23.0034 5.68436 23.0953 5.547 23.158 5.39578C23.2208 5.24457 23.2531 5.08246 23.2531 4.91875C23.2531 4.75504 23.2208 4.59294 23.158 4.44172C23.0953 4.29051 23.0034 4.15315 22.8875 4.0375Z" fill="black"/>
</svg>
