<svg width="34" height="34" viewBox="0 0 34 34" fill="none" xmlns="http://www.w3.org/2000/svg">
<path d="M17 0C7.6109 0 0 7.6109 0 17C0 26.3891 7.6109 34 17 34C26.3891 34 34 26.3891 34 17C34 7.6109 26.3891 0 17 0ZM23.8 18.7H18.7V23.8C18.7 24.7384 17.9384 25.5 17 25.5C16.0616 25.5 15.3 24.7384 15.3 23.8V18.7H10.2C9.2616 18.7 8.5 17.9384 8.5 17C8.5 16.0616 9.2616 15.3 10.2 15.3H15.3V10.2C15.3 9.2616 16.0616 8.5 17 8.5C17.9384 8.5 18.7 9.2616 18.7 10.2V15.3H23.8C24.7384 15.3 25.5 16.0616 25.5 17C25.5 17.9384 24.7384 18.7 23.8 18.7Z" fill="black"/>
</svg>
