<svg width="20" height="26" viewBox="0 0 20 26" fill="none" xmlns="http://www.w3.org/2000/svg">
<path d="M7.5 0L6.25 1.3H1.25C0.5 1.3 0 1.82 0 2.6C0 3.38 0.5 3.9 1.25 3.9H3.75H16.25H18.75C19.5 3.9 20 3.38 20 2.6C20 1.82 19.5 1.3 18.75 1.3H13.75L12.5 0H7.5ZM1.25 6.5V23.4C1.25 24.83 2.375 26 3.75 26H16.25C17.625 26 18.75 24.83 18.75 23.4V6.5H1.25ZM6.25 9.1C7 9.1 7.5 9.62 7.5 10.4V22.1C7.5 22.88 7 23.4 6.25 23.4C5.5 23.4 5 22.88 5 22.1V10.4C5 9.62 5.5 9.1 6.25 9.1ZM13.75 9.1C14.5 9.1 15 9.62 15 10.4V22.1C15 22.88 14.5 23.4 13.75 23.4C13 23.4 12.5 22.88 12.5 22.1V10.4C12.5 9.62 13 9.1 13.75 9.1Z" fill="black"/>
</svg>
