<svg width="26" height="34" viewBox="0 0 26 34" fill="none" xmlns="http://www.w3.org/2000/svg">
<path d="M9.75 0L8.125 1.7H1.625C0.65 1.7 0 2.38 0 3.4C0 4.42 0.65 5.1 1.625 5.1H4.875H21.125H24.375C25.35 5.1 26 4.42 26 3.4C26 2.38 25.35 1.7 24.375 1.7H17.875L16.25 0H9.75ZM1.625 8.5V30.6C1.625 32.47 3.0875 34 4.875 34H21.125C22.9125 34 24.375 32.47 24.375 30.6V8.5H1.625ZM8.125 11.9C9.1 11.9 9.75 12.58 9.75 13.6V28.9C9.75 29.92 9.1 30.6 8.125 30.6C7.15 30.6 6.5 29.92 6.5 28.9V13.6C6.5 12.58 7.15 11.9 8.125 11.9ZM17.875 11.9C18.85 11.9 19.5 12.58 19.5 13.6V28.9C19.5 29.92 18.85 30.6 17.875 30.6C16.9 30.6 16.25 29.92 16.25 28.9V13.6C16.25 12.58 16.9 11.9 17.875 11.9Z" fill="#DCD4AF"/>
</svg>
