<svg width="43" height="34" viewBox="0 0 43 34" fill="none" xmlns="http://www.w3.org/2000/svg">
<path d="M38.7 4.25H21.5L18.4685 1.25375C17.6515 0.44625 16.555 0 15.4155 0H4.3C1.935 0 0.0215 1.9125 0.0215 4.25L0 29.75C0 32.0875 1.935 34 4.3 34H38.7C41.065 34 43 32.0875 43 29.75V8.5C43 6.1625 41.065 4.25 38.7 4.25ZM36.55 29.75H6.45C5.2675 29.75 4.3 28.7938 4.3 27.625V10.625C4.3 9.45625 5.2675 8.5 6.45 8.5H36.55C37.7325 8.5 38.7 9.45625 38.7 10.625V27.625C38.7 28.7938 37.7325 29.75 36.55 29.75Z" fill="#DCD4AF"/>
</svg>
