<svg width="42" height="42" viewBox="0 0 42 42" fill="none" xmlns="http://www.w3.org/2000/svg">
<path d="M37.0455 23.058C37.1318 22.386 37.1966 21.714 37.1966 21C37.1966 20.286 37.1318 19.614 37.0455 18.942L41.6008 15.477C42.011 15.162 42.1189 14.595 41.8599 14.133L37.542 6.867C37.283 6.405 36.7001 6.237 36.2251 6.405L30.8494 8.505C29.7268 7.665 28.5178 6.972 27.2008 6.447L26.3805 0.882C26.3157 0.378 25.8623 0 25.3226 0H16.6869C16.1472 0 15.6938 0.378 15.6291 0.882L14.8087 6.447C13.4918 6.972 12.2828 7.686 11.1601 8.505L5.78444 6.405C5.28789 6.216 4.72657 6.405 4.4675 6.867L0.149681 14.133C-0.130978 14.595 -0.00144281 15.162 0.40875 15.477L4.96405 18.942C4.8777 19.614 4.81293 20.307 4.81293 21C4.81293 21.693 4.8777 22.386 4.96405 23.058L0.40875 26.523C-0.00144281 26.838 -0.109389 27.405 0.149681 27.867L4.4675 35.133C4.72657 35.595 5.30948 35.763 5.78444 35.595L11.1601 33.495C12.2828 34.335 13.4918 35.028 14.8087 35.553L15.6291 41.118C15.6938 41.622 16.1472 42 16.6869 42H25.3226C25.8623 42 26.3157 41.622 26.3805 41.118L27.2008 35.553C28.5178 35.028 29.7268 34.314 30.8494 33.495L36.2251 35.595C36.7216 35.784 37.283 35.595 37.542 35.133L41.8599 27.867C42.1189 27.405 42.011 26.838 41.6008 26.523L37.0455 23.058V23.058ZM21.0048 28.35C16.8381 28.35 13.4486 25.053 13.4486 21C13.4486 16.947 16.8381 13.65 21.0048 13.65C25.1715 13.65 28.561 16.947 28.561 21C28.561 25.053 25.1715 28.35 21.0048 28.35Z" fill="#DCD4AF"/>
</svg>
