<svg width="40" height="40" viewBox="0 0 40 40" fill="none" xmlns="http://www.w3.org/2000/svg">
<path d="M4.16667 40C3.02083 40 2.04028 39.6087 1.225 38.826C0.408333 38.042 0 37.1 0 36V4C0 2.9 0.408333 1.958 1.225 1.174C2.04028 0.391333 3.02083 0 4.16667 0H20.8333L33.3333 12V20H29.1667V14H18.75V4H4.16667V36H16.6667V40H4.16667ZM29.7917 25.05L32.0312 27.2L23.9583 34.9V37H26.1458L34.2187 29.3L36.4062 31.4L27.4479 40H20.8333V33.65L29.7917 25.05ZM36.4062 31.4L29.7917 25.05L32.8125 22.15C33.1944 21.7833 33.6806 21.6 34.2708 21.6C34.8611 21.6 35.3472 21.7833 35.7292 22.15L39.4271 25.7C39.809 26.0667 40 26.5333 40 27.1C40 27.6667 39.809 28.1333 39.4271 28.5L36.4062 31.4Z" fill="black"/>
</svg>
