<svg width="43" height="43" viewBox="0 0 43 43" fill="none" xmlns="http://www.w3.org/2000/svg">
<path d="M37.2888 23.5825C37.3738 22.9025 37.4375 22.2225 37.4375 21.5C37.4375 20.7775 37.3738 20.0975 37.2888 19.4175L41.7725 15.9112C42.1763 15.5925 42.2825 15.0187 42.0275 14.5512L37.7775 7.19875C37.5225 6.73125 36.9488 6.56125 36.4813 6.73125L31.19 8.85625C30.085 8.00625 28.895 7.305 27.5988 6.77375L26.7913 1.1425C26.7275 0.6325 26.2813 0.25 25.75 0.25H17.25C16.7188 0.25 16.2725 0.6325 16.2088 1.1425L15.4013 6.77375C14.105 7.305 12.915 8.0275 11.81 8.85625L6.51877 6.73125C6.03002 6.54 5.47753 6.73125 5.22253 7.19875L0.972525 14.5512C0.696275 15.0187 0.823775 15.5925 1.22753 15.9112L5.71128 19.4175C5.62628 20.0975 5.56253 20.7987 5.56253 21.5C5.56253 22.2013 5.62628 22.9025 5.71128 23.5825L1.22753 27.0888C0.823775 27.4075 0.717525 27.9813 0.972525 28.4488L5.22253 35.8012C5.47753 36.2687 6.05127 36.4388 6.51877 36.2688L11.81 34.1438C12.915 34.9938 14.105 35.695 15.4013 36.2263L16.2088 41.8575C16.2725 42.3675 16.7188 42.75 17.25 42.75H25.75C26.2813 42.75 26.7275 42.3675 26.7913 41.8575L27.5988 36.2263C28.895 35.695 30.085 34.9725 31.19 34.1438L36.4813 36.2688C36.97 36.46 37.5225 36.2687 37.7775 35.8012L42.0275 28.4488C42.2825 27.9813 42.1763 27.4075 41.7725 27.0888L37.2888 23.5825V23.5825ZM21.5 28.9375C17.3988 28.9375 14.0625 25.6012 14.0625 21.5C14.0625 17.3988 17.3988 14.0625 21.5 14.0625C25.6013 14.0625 28.9375 17.3988 28.9375 21.5C28.9375 25.6012 25.6013 28.9375 21.5 28.9375Z" fill="black"/>
</svg>
